<svg width="124" height="44" viewBox="0 0 124 44" fill="none" xmlns="http://www.w3.org/2000/svg">
<path d="M0 0V43.6418H9.2616V0H0Z" fill="white"/>
<path d="M20.137 43.6418L20.0668 0H24.8379L52.7631 29.5389V0H57.5342V43.6418H52.8332L24.8379 13.6819V43.6418H20.137Z" fill="white"/>
<path d="M68.3394 43.6418V0H77.601V43.6418H68.3394Z" fill="white"/>
<path fill-rule="evenodd" clip-rule="evenodd" d="M88.4062 0V43.6418H97.6678V24.6976H106.789C129.101 24.6976 130.364 1.71298e-05 106.789 0H88.4062ZM104.053 20.6281H97.6678V3.92918H104.053C106.824 3.92918 109.316 4.62895 111.139 5.89376C114.577 8.27933 116.542 20.6281 104.053 20.6281Z" fill="white"/>
</svg>
