<svg width="106" height="93" viewBox="0 0 106 93" fill="none" xmlns="http://www.w3.org/2000/svg">
<path d="M60.5176 90.3045C75.8772 90.3045 89.4456 82.6352 97.6021 70.9171C90.7906 73.6409 86.9716 75.0804 80.1601 70.9171C80.0282 73.6583 79.1343 75.2725 75.8235 78.3149L74.548 82.6516C72.0969 83.7211 70.7675 83.7345 68.6807 82.6516C66.3408 85.6975 65.1228 87.4116 60.5176 90.3045Z" fill="#6C8693"/>
<path fill-rule="evenodd" clip-rule="evenodd" d="M17.1179 57.652C15.9767 53.6825 15.3654 49.4888 15.3654 45.1522C15.3654 24.9253 28.6655 7.80478 46.9975 2.05908C52.2761 17.0817 44.8442 23.3698 35.9198 30.9206C28.5842 37.1272 20.2402 44.187 17.1179 57.652ZM25.0591 59.6928C27.7589 51.6199 31.0812 48.5005 39.8547 45.1522C46.7093 45.1522 47.8299 52.5581 49.0337 60.5143C50.1148 67.659 51.2631 75.2475 56.6912 78.3149C56.0521 78.576 55.4292 78.8369 54.8203 79.0919C49.4619 81.3363 45.1824 83.1287 40.4478 80.6001C48.2524 69.9523 36.9306 55.261 25.7479 61.0566C25.5204 60.6109 25.2908 60.1563 25.0591 59.6928Z" fill="#6C8693"/>
<path fill-rule="evenodd" clip-rule="evenodd" d="M91.3844 12.198C100.176 20.4365 105.67 32.1528 105.67 45.1522C105.67 47.317 105.518 49.4462 105.223 51.5297C99.0541 50.6379 94.2595 49.5381 90.4457 48.1175H92.5959V36.3914H83.2959V27.4957H71.435V30.6295C63.9697 29.6266 60.8678 26.6432 56.6912 20.6629C72.4295 23.8491 79.6725 20.9498 91.3844 12.198Z" fill="#6C8693"/>
<path d="M20.6218 93.0002C-18.437 77.33 7.62793 49.5232 20.6218 66.4992C33.6156 49.5232 59.6805 77.33 20.6218 93.0002Z" fill="#6C8693"/>
<path fill-rule="evenodd" clip-rule="evenodd" d="M81.3006 29.1138H73.162V38.3882H63.8874V46.5268H73.162V55.8008H81.3006V46.5268H90.5744V38.3882H81.3006V29.1138Z" fill="#6C8693"/>
</svg>
