<svg width="45" height="30" viewBox="0 0 45 30" fill="none" xmlns="http://www.w3.org/2000/svg">
<path d="M30.2505 4.53581C30.2505 4.9141 29.9049 5.66038 28.4227 6.40147C27.0302 7.0977 25.0016 7.57162 22.6789 7.57162C20.3562 7.57162 18.3276 7.0977 16.9351 6.40147C15.453 5.66038 15.1073 4.9141 15.1073 4.53581C15.1073 4.15752 15.453 3.41124 16.9351 2.67015C18.3276 1.97392 20.3562 1.5 22.6789 1.5C25.0016 1.5 27.0302 1.97392 28.4227 2.67015C29.9049 3.41124 30.2505 4.15752 30.2505 4.53581Z" stroke="#1E4257" stroke-width="3"/>
<path d="M25.3846 28.095C25.3848 6.91706 33.5155 13.1323 44.4828 4.61511C45.1757 7.5875 45.6175 9.4492 42.7811 11.2908C43.3484 14.9739 41.8357 18.657 38.8102 19.5778C38.9125 24.3719 38.6211 25.3327 33.3266 26.4836C32.3812 30.8573 27.6539 30.8573 25.3846 28.095Z" fill="#1E4257"/>
<path d="M19.6154 28.095C19.6152 6.91706 11.4845 13.1323 0.517237 4.61511C-0.175678 7.5875 -0.617489 9.4492 2.21887 11.2908C1.65159 14.9739 3.16432 18.657 6.18976 19.5778C6.08746 24.3719 6.37885 25.3327 11.6734 26.4836C12.6188 30.8573 17.3461 30.8573 19.6154 28.095Z" fill="#1E4257"/>
</svg>
